<svg width="236" height="32" viewBox="0 0 236 32" fill="none" xmlns="http://www.w3.org/2000/svg">
<path d="M16.5833 22.2653C17.0131 21.5436 17.4052 20.8888 17.7949 20.2339C18.1847 19.5791 18.5723 18.922 18.9598 18.2672C19.5523 17.2693 20.1403 16.2693 20.7351 15.2714C21.2785 14.3604 21.8354 13.4583 22.3744 12.5451C23.0003 11.4849 23.6083 10.4158 24.232 9.35554C24.6017 8.72965 24.9982 8.11713 25.3702 7.49124C25.7466 6.8609 26.103 6.21719 26.4794 5.58463C27.1342 4.48208 27.8025 3.38623 28.4573 2.28368C28.7803 1.74244 29.0943 1.19451 29.4062 0.646578C29.493 0.492891 29.5977 0.42607 29.787 0.428297C30.8428 0.439434 31.8986 0.439434 32.9543 0.428297C33.1526 0.42607 33.2149 0.472844 33.2149 0.682216C33.2082 10.8055 33.2105 20.9311 33.2105 31.0544C33.2105 31.168 33.206 31.2816 33.2127 31.3952C33.2216 31.5667 33.1704 31.6402 32.9744 31.638C31.8652 31.6269 30.7559 31.6336 29.6467 31.6336C29.4663 31.6336 29.2859 31.6269 29.1055 31.6358C28.9629 31.6425 28.9139 31.5779 28.9184 31.4465C28.9228 31.3462 28.9184 31.246 28.9184 31.1458C28.9184 23.9826 28.9161 16.8194 28.9161 9.65401C28.9161 9.48918 28.9161 9.32436 28.9161 9.15953C28.9005 9.15285 28.8827 9.1484 28.8671 9.14171C28.709 9.39786 28.5508 9.65178 28.3972 9.90792C28.0252 10.5294 27.6554 11.1508 27.2835 11.7722C26.6398 12.848 25.9961 13.9238 25.3524 14.9997C24.8779 15.7904 24.3991 16.5789 23.9246 17.3696C23.2698 18.461 22.6216 19.5546 21.9668 20.646C21.3298 21.7085 20.6927 22.7709 20.0535 23.8334C19.4098 24.9069 18.7661 25.9805 18.1201 27.0541C17.9887 27.2746 17.8618 27.4974 17.7192 27.709C17.6813 27.7646 17.59 27.8114 17.5232 27.8114C16.982 27.8159 16.4407 27.7869 15.8995 27.8136C15.6055 27.827 15.4584 27.7112 15.3204 27.4751C14.6922 26.4059 14.0463 25.3457 13.4093 24.2833C12.5696 22.8823 11.7343 21.4813 10.8946 20.0825C10.2643 19.0289 9.63391 17.9776 9.00357 16.9241C8.35096 15.8371 7.69834 14.7524 7.04572 13.6677C6.51561 12.7834 5.9855 11.897 5.45985 11.0105C5.10793 10.418 4.76491 9.82328 4.41522 9.23081C4.38626 9.18181 4.34171 9.14394 4.27267 9.06598C4.26598 9.16844 4.2593 9.22413 4.2593 9.28204C4.2593 16.5388 4.2593 23.7955 4.2593 31.0544C4.2593 31.1948 4.25485 31.3351 4.2593 31.4754C4.26376 31.5979 4.21253 31.638 4.09225 31.638C2.78257 31.6358 1.47288 31.6358 0.163195 31.638C0.0429178 31.638 -0.00608401 31.5957 0.00059806 31.4732C0.00728013 31.2995 0.00282542 31.1257 0.00282542 30.952C0.00282542 20.8754 0.00282542 10.7966 0.00282542 0.720081C0.00282542 0.439434 0.00282541 0.437207 0.287927 0.437207C1.34369 0.437207 2.39946 0.439434 3.45523 0.434979C3.59332 0.434979 3.68687 0.463935 3.76483 0.597576C4.15907 1.28137 4.56445 1.95849 4.9676 2.63783C5.4643 3.47755 5.95878 4.31949 6.45993 5.15697C6.99004 6.04792 7.52906 6.93218 8.05694 7.82312C8.60042 8.74302 9.13053 9.67182 9.67623 10.5917C10.2308 11.5294 10.7966 12.4605 11.3579 13.396C11.9526 14.3916 12.5473 15.3872 13.1398 16.3851C13.779 17.4609 14.4138 18.5389 15.0508 19.6192C15.5475 20.4611 16.042 21.3053 16.5365 22.1472C16.5499 22.174 16.5588 22.2007 16.5833 22.2653Z" fill="#fff"/>
<path d="M44.7971 4.29292C44.7971 4.39761 44.7971 4.47779 44.7971 4.55575C44.7971 8.03711 44.7993 11.5185 44.7927 14.9998C44.7927 15.1736 44.8394 15.2248 45.0065 15.1981C45.1312 15.1802 45.2604 15.1936 45.3874 15.1936C50.2853 15.1936 55.1855 15.1936 60.0835 15.1936C60.4354 15.1936 60.4354 15.1936 60.4354 15.55C60.4354 16.6258 60.4309 17.7016 60.4398 18.7774C60.4421 18.9556 60.3864 19.0247 60.2082 18.9935C60.1369 18.9823 60.0612 18.989 59.9877 18.989C55.0296 18.989 50.0693 18.989 45.1112 18.989C45.0711 18.989 45.031 18.9935 44.9909 18.989C44.8283 18.9667 44.7927 19.038 44.7927 19.1939C44.7971 22.7755 44.7949 26.3571 44.7949 29.9387C44.7949 30.4399 44.7904 30.941 44.7971 31.4422C44.7993 31.5869 44.7593 31.6404 44.6056 31.6404C43.2491 31.6359 41.8926 31.6337 40.5362 31.6426C40.3268 31.6449 40.3357 31.5402 40.3357 31.3932C40.338 23.9092 40.338 16.4253 40.338 8.93918C40.338 6.19285 40.3402 3.44653 40.3335 0.700195C40.3335 0.493051 40.4003 0.421776 40.5941 0.437367C40.6876 0.44405 40.7812 0.439595 40.8747 0.439595C47.911 0.439595 54.9494 0.439595 61.9856 0.439595C62.3598 0.439595 62.3598 0.439595 62.3598 0.811563C62.3598 1.88738 62.3554 2.96319 62.3643 4.039C62.3665 4.24392 62.3086 4.29738 62.1059 4.29738C56.4596 4.29292 50.811 4.29292 45.1646 4.29292C45.051 4.29292 44.9374 4.29292 44.7971 4.29292Z" fill="#fff"/>
<path d="M88.7118 15.4364C88.968 15.53 89.184 15.6102 89.4001 15.6837C90.0082 15.8931 90.5784 16.1737 91.1196 16.5256C91.603 16.8397 92.0462 17.1871 92.4494 17.5948C92.9594 18.1093 93.3514 18.704 93.6833 19.3455C94.0775 20.1072 94.3203 20.9202 94.4206 21.7621C94.5052 22.4727 94.5431 23.201 94.503 23.916C94.4451 24.9606 94.1889 25.9696 93.7078 26.9096C93.2378 27.8272 92.5897 28.5979 91.77 29.2282C91.2466 29.6314 90.692 29.9811 90.0928 30.255C89.3333 30.6047 88.5515 30.8921 87.734 31.0703C87.0168 31.2284 86.2907 31.362 85.5646 31.469C85.059 31.5425 84.5445 31.587 84.0344 31.5892C78.6709 31.6115 73.3075 31.6226 67.9462 31.6405C67.7547 31.6405 67.6812 31.6048 67.6812 31.391C67.6878 21.1674 67.6856 10.9461 67.6856 0.722533C67.6856 0.441886 67.6856 0.439659 67.9707 0.439659C72.9021 0.439659 77.8334 0.432977 82.7626 0.446341C83.3506 0.448568 83.9386 0.544345 84.5266 0.611165C85.5156 0.722533 86.48 0.940814 87.4222 1.26824C88.5604 1.66248 89.6162 2.20595 90.5227 3.01225C91.6787 4.03907 92.407 5.30643 92.7144 6.82549C92.8636 7.56274 92.906 8.30445 92.8614 9.04616C92.7879 10.2757 92.4872 11.4473 91.868 12.5253C91.4849 13.1913 91.0082 13.7904 90.4269 14.2827C89.9792 14.6613 89.4647 14.9642 88.9791 15.2961C88.9079 15.3451 88.8277 15.3763 88.7118 15.4364ZM72.1425 28.0166C72.2094 28.021 72.2561 28.0277 72.3007 28.0277C76.0181 28.0121 79.7356 27.9987 83.4553 27.9765C83.8785 27.9742 84.3061 27.9364 84.7249 27.8785C85.5668 27.7649 86.3954 27.5889 87.1817 27.2526C87.8855 26.9519 88.5158 26.5398 89.0125 25.9518C89.6919 25.1477 89.9681 24.19 90.0126 23.1587C90.026 22.829 89.9926 22.4949 89.9748 22.1631C89.9347 21.4102 89.6874 20.7242 89.2865 20.0916C88.7029 19.1739 87.8209 18.6349 86.8342 18.2741C86.2751 18.0692 85.6804 17.9489 85.0902 17.8464C84.4643 17.7373 83.8273 17.6371 83.1969 17.6348C79.5975 17.6193 75.9959 17.6326 72.3942 17.6371C72.1403 17.6371 72.1403 17.6371 72.1403 17.8932C72.1403 21.1541 72.1403 24.4127 72.1403 27.6735C72.1425 27.7827 72.1425 27.8874 72.1425 28.0166ZM72.1559 4.05243C72.1559 7.38455 72.1559 10.6944 72.1559 14.0265C72.2383 14.0265 72.3096 14.0265 72.3831 14.0265C74.7419 14.0265 77.0984 14.0354 79.4572 14.0221C80.5352 14.0176 81.6133 13.9798 82.6891 13.9441C83.4553 13.9196 84.1925 13.7437 84.9276 13.5321C85.6737 13.3182 86.3508 12.9619 86.9389 12.4696C87.8788 11.6834 88.3198 10.6276 88.4112 9.42259C88.4512 8.89247 88.4156 8.35791 88.2931 7.83671C88.0526 6.83217 87.538 6.00582 86.6961 5.39553C85.9833 4.87878 85.1859 4.55804 84.3306 4.35758C83.4932 4.16157 82.6512 4.04798 81.7915 4.04798C78.7377 4.0502 75.6863 4.04798 72.6326 4.04798C72.4789 4.05243 72.3252 4.05243 72.1559 4.05243Z" fill="#fff"/>
<path d="M129.893 15.3719C129.893 15.7996 129.893 16.2272 129.893 16.6549C129.871 16.7195 129.835 16.7818 129.828 16.8486C129.762 17.5614 129.737 18.2831 129.624 18.9891C129.519 19.6395 129.345 20.2832 129.151 20.9136C128.96 21.5395 128.733 22.1587 128.47 22.76C128.12 23.5574 127.701 24.3214 127.182 25.023C126.828 25.5019 126.479 25.9942 126.066 26.4218C125.532 26.9787 124.948 27.4932 124.367 28.0032C123.685 28.6002 122.913 29.0679 122.115 29.4911C121.258 29.9455 120.382 30.3576 119.445 30.6226C118.834 30.7941 118.237 31.0124 117.618 31.1438C116.914 31.2953 116.197 31.3933 115.482 31.4824C114.865 31.5581 114.241 31.6271 113.62 31.6294C109.123 31.6427 104.626 31.6361 100.129 31.6361C99.8772 31.6361 99.875 31.6338 99.875 31.3755C99.875 21.1898 99.875 11.0063 99.875 0.820588C99.875 0.430801 99.875 0.430801 100.278 0.430801C104.468 0.430801 108.657 0.426346 112.847 0.435256C113.564 0.437483 114.284 0.48203 115.001 0.526577C115.464 0.555533 115.93 0.588943 116.384 0.67581C117.204 0.831725 118.021 0.99655 118.825 1.2126C119.823 1.48211 120.779 1.87636 121.708 2.33742C123.026 2.99226 124.229 3.81193 125.285 4.83428C125.81 5.34435 126.303 5.8945 126.768 6.46025C127.329 7.14182 127.788 7.89912 128.187 8.68761C128.757 9.81242 129.18 10.9907 129.445 12.2202C129.55 12.6991 129.646 13.1824 129.706 13.6702C129.768 14.178 129.784 14.6903 129.824 15.2004C129.833 15.2605 129.871 15.3162 129.893 15.3719ZM104.343 4.28858C104.343 12.1177 104.343 19.9202 104.343 27.7404C104.428 27.7404 104.499 27.7404 104.57 27.7404C106.942 27.7404 109.315 27.7404 111.687 27.7404C112.84 27.7404 113.994 27.7827 115.137 27.58C115.645 27.4887 116.159 27.4308 116.654 27.2927C117.346 27.0989 118.035 26.8717 118.701 26.6045C119.545 26.2637 120.338 25.8182 121.064 25.2614C121.638 24.8203 122.198 24.3615 122.652 23.7891C122.973 23.3837 123.325 22.9984 123.599 22.5618C124.213 21.5885 124.71 20.5527 124.966 19.4235C125.144 18.6372 125.276 17.8398 125.369 17.038C125.429 16.5346 125.403 16.0156 125.376 15.5055C125.345 14.9175 125.3 14.3273 125.211 13.7459C125.013 12.4318 124.576 11.1956 123.926 10.0329C123.32 8.94598 122.529 8.0194 121.589 7.20864C120.959 6.66517 120.275 6.20856 119.536 5.82768C118.879 5.48913 118.199 5.21293 117.498 4.98574C116.594 4.69173 115.667 4.51354 114.727 4.40218C114.155 4.33313 113.575 4.29526 112.999 4.29304C110.172 4.2819 107.346 4.28635 104.519 4.28635C104.466 4.28858 104.412 4.28858 104.343 4.28858Z" fill="#fff"/>
<path d="M150.515 17.498L149.414 20.8258H148L151.596 10.2441H153.245L156.853 20.8258H155.393L154.262 17.498H150.515V17.498ZM153.985 16.4305L152.95 13.3869C152.716 12.6962 152.557 12.0683 152.402 11.457H152.372C152.217 12.0849 152.042 12.7293 151.837 13.3704L150.802 16.4305H153.985Z" fill="#fff"/>
<path d="M158.413 10.3857C159.246 10.2601 160.234 10.1643 161.318 10.1643C163.281 10.1643 164.679 10.6204 165.604 11.4829C166.546 12.3454 167.095 13.5715 167.095 15.2833C167.095 17.0083 166.559 18.4228 165.571 19.3976C164.583 20.3858 162.95 20.9211 160.892 20.9211C159.917 20.9211 159.1 20.8748 158.413 20.7955V10.3857ZM159.778 19.7413C160.125 19.8041 160.627 19.8206 161.159 19.8206C164.077 19.8206 165.664 18.1881 165.664 15.3329C165.68 12.8378 164.266 11.2516 161.377 11.2516C160.67 11.2516 160.138 11.3143 159.775 11.3937V19.7413H159.778Z" fill="#fff"/>
<path d="M171.189 20.8258L167.736 10.2441H169.21L170.859 15.4557C171.315 16.8833 171.708 18.1721 171.989 19.4114H172.019C172.316 18.1853 172.756 16.8535 173.228 15.4722L175.019 10.2441H176.48L172.696 20.8258H171.189Z" fill="#fff"/>
<path d="M186.669 15.4258C186.669 19.0676 184.454 20.9975 181.754 20.9975C178.959 20.9975 176.999 18.8329 176.999 15.6274C176.999 12.2665 179.088 10.0688 181.913 10.0688C184.798 10.0722 186.669 12.2863 186.669 15.4258ZM178.456 15.5976C178.456 17.858 179.682 19.8838 181.83 19.8838C183.998 19.8838 185.221 17.8911 185.221 15.4886C185.221 13.3868 184.121 11.1858 181.847 11.1858C179.587 11.1858 178.456 13.2744 178.456 15.5976Z" fill="#fff"/>
<path d="M196.493 20.3529C195.882 20.5743 194.672 20.9345 193.245 20.9345C191.642 20.9345 190.327 20.5281 189.289 19.5366C188.38 18.6576 187.815 17.2465 187.815 15.5974C187.831 12.4414 189.996 10.1348 193.545 10.1348C194.771 10.1348 195.726 10.4024 196.182 10.6206L195.852 11.7342C195.287 11.4831 194.58 11.2782 193.512 11.2782C190.938 11.2782 189.259 12.881 189.259 15.5313C189.259 18.2148 190.875 19.801 193.34 19.801C194.236 19.801 194.847 19.6754 195.161 19.5201V16.3641H193.01V15.2637H196.493V20.3529V20.3529Z" fill="#fff"/>
<path d="M200.294 17.498L199.193 20.8258H197.779L201.374 10.2441H203.023L206.632 20.8258H205.171L204.041 17.498H200.294V17.498ZM203.76 16.4305L202.726 13.3869C202.491 12.6962 202.333 12.0683 202.177 11.457H202.148C201.992 12.0849 201.817 12.7293 201.612 13.3704L200.578 16.4305H203.76Z" fill="#fff"/>
<path d="M208.189 10.3857C209.022 10.2601 210.01 10.1643 211.094 10.1643C213.057 10.1643 214.455 10.6204 215.38 11.4829C216.322 12.3454 216.87 13.5715 216.87 15.2833C216.87 17.0083 216.335 18.4228 215.347 19.3976C214.359 20.3858 212.726 20.9211 210.667 20.9211C209.693 20.9211 208.876 20.8748 208.189 20.7955V10.3857ZM209.554 19.7413C209.901 19.8041 210.403 19.8206 210.935 19.8206C213.853 19.8206 215.439 18.1881 215.439 15.3329C215.456 12.8378 214.042 11.2516 211.153 11.2516C210.446 11.2516 209.914 11.3143 209.551 11.3937V19.7413H209.554Z" fill="#fff"/>
<path d="M227.683 15.4258C227.683 19.0676 225.469 20.9975 222.769 20.9975C219.973 20.9975 218.014 18.8329 218.014 15.6274C218.014 12.2665 220.102 10.0688 222.928 10.0688C225.816 10.0722 227.683 12.2863 227.683 15.4258ZM219.474 15.5976C219.474 17.858 220.7 19.8838 222.848 19.8838C225.016 19.8838 226.239 17.8911 226.239 15.4886C226.239 13.3868 225.139 11.1858 222.865 11.1858C220.605 11.1858 219.474 13.2744 219.474 15.5976Z" fill="#fff"/>
<path d="M229.27 19.1602C229.881 19.5369 230.777 19.8509 231.718 19.8509C233.116 19.8509 233.933 19.1139 233.933 18.0465C233.933 17.0584 233.367 16.4933 231.94 15.9414C230.211 15.33 229.144 14.4345 229.144 12.9441C229.144 11.295 230.509 10.0723 232.568 10.0723C233.652 10.0723 234.435 10.3234 234.907 10.5911L234.531 11.7048C234.187 11.5164 233.48 11.2025 232.521 11.2025C231.077 11.2025 230.529 12.065 230.529 12.7887C230.529 13.7768 231.173 14.2626 232.634 14.831C234.425 15.5217 235.334 16.3842 235.334 17.9375C235.334 19.57 234.124 20.9811 231.629 20.9811C230.608 20.9811 229.494 20.6837 228.929 20.3069L229.27 19.1602Z" fill="#fff"/>
</svg>
