<?xml version="1.0" encoding="UTF-8"?>
<svg id="Layer_2" data-name="Layer 2" xmlns="http://www.w3.org/2000/svg" viewBox="0 0 504.84 502.37">
  <defs>
    <style>
      .cls-1 {
        fill: #000;
      }

      .cls-1, .cls-2, .cls-3 {
        stroke: #fff;
        stroke-miterlimit: 10;
        stroke-width: 3.12px;
      }

      .cls-2 {
        fill: none;
      }

      .cls-3 {
        fill: #fff;
      }
    </style>
  </defs>
  <g id="Layer_1-2" data-name="Layer 1">
    <g id="Medalha_Frente" data-name="Medalha Frente">
      <path class="cls-3" d="M498.96,307.05l-40.14-22.47c1.75-10.89,2.67-22.04,2.67-33.41s-.92-22.5-2.67-33.37l40.28-22.55c1.34-.75,1.97-2.3,1.62-3.73-6.4-26.69-16.99-51.79-31.03-74.54-.78-1.25-2.31-1.91-3.79-1.48l-44.43,12.53c-13.12-18.07-29.03-33.98-47.1-47.12l12.57-44.57c.42-1.48-.23-3.01-1.48-3.79-23.41-14.34-48.63-24.6-74.67-30.75-1.42-.34-2.97.28-3.73,1.62l-22.47,40.14c-10.89-1.75-22.04-2.67-33.39-2.67s-22.5.92-33.39,2.67L195.26,3.28c-.75-1.34-2.3-1.97-3.73-1.62-26.69,6.4-51.79,16.99-74.54,31.03-1.25.78-1.91,2.31-1.48,3.79l12.53,44.43c-18.07,13.12-33.98,29.03-47.1,47.1l-44.59-12.57c-1.48-.42-3.01.23-3.78,1.48-14.35,23.41-24.61,48.63-30.77,74.67-.34,1.42.28,2.97,1.62,3.73l40.14,22.47c-1.75,10.89-2.67,22.04-2.67,33.39s.92,22.5,2.67,33.39l-40.28,22.55c-1.34.75-1.97,2.3-1.62,3.73,6.4,26.69,16.99,51.79,31.03,74.54.78,1.25,2.31,1.91,3.79,1.48l44.43-12.54c13.12,18.08,29.03,34,47.1,47.12l-12.57,44.57c-.41,1.48.23,3.03,1.48,3.79,23.41,14.35,48.65,24.61,74.67,30.77,1.42.34,2.98-.28,3.73-1.64l22.47-40.12c10.89,1.75,22.04,2.67,33.41,2.67s22.49-.92,33.37-2.67l22.55,40.26c.75,1.36,2.3,1.98,3.73,1.64,26.69-6.4,51.79-16.99,74.54-31.05,1.25-.77,1.91-2.3,1.48-3.78l-12.53-44.43c18.07-13.12,33.98-29.03,47.1-47.1l44.59,12.57c1.48.41,3.01-.23,3.79-1.48,14.34-23.41,24.6-48.65,30.75-74.67.34-1.44-.28-2.98-1.62-3.73h.01ZM251.19,420.67c-19.68,0-38.5-3.55-56.08-9.75l-23.13,38.89c-.89,1.5-2.81,2.09-4.4,1.31-1.67-.83-2.36-2.86-1.53-4.53l19.35-39.25c-60.84-25.77-103.71-86.11-103.71-156.17,0-93.34,76.15-169.49,169.51-169.49,14.16,0,27.88,1.95,41.04,5.26l18.62-35.37c.8-1.51,2.65-2.22,4.28-1.55l33.33,13.81c1.72.72,2.55,2.7,1.83,4.42-.08.19-.17.36-.27.53l-20.63,32.22c54.14,28.35,91.3,85.02,91.3,150.18,0,93.36-76.15,169.49-169.49,169.49h-.02Z"/>
      <path class="cls-2" d="M292.23,86.94l-5.22,9.92c-11.54-2.69-23.49-4.25-35.83-4.25-87.35,0-158.58,71.23-158.58,158.56,0,65.76,40.4,122.38,97.64,146.33l-4.86,9.84c-60.84-25.77-103.71-86.11-103.71-156.17,0-93.34,76.15-169.49,169.51-169.49,14.16,0,27.88,1.95,41.04,5.26h.01Z"/>
      <path class="cls-2" d="M420.68,251.18c0,93.36-76.15,169.49-169.49,169.49-19.68,0-38.5-3.55-56.08-9.75l5.68-9.54c15.85,5.34,32.76,8.37,50.4,8.37,87.33,0,158.56-71.23,158.56-158.58,0-61.3-35.15-114.55-86.29-140.93l5.92-9.25c54.14,28.35,91.3,85.02,91.3,150.18h0Z"/>
      <path class="cls-3" d="M349.19,323.97v21.85c0,1.86-1.51,3.37-3.37,3.37h-113.97l17.02-28.6h96.95c1.86,0,3.37,1.51,3.37,3.37h0Z"/>
      <path class="cls-3" d="M349.19,156.55v21.85c0,1.86-1.51,3.37-3.37,3.37h-14.37l6.98-11.74c.95-1.59.42-3.67-1.17-4.62-1.28-.77-2.87-.58-3.95.36l-18.26,16.01h-37.37l18.3-28.6h49.83c1.86,0,3.37,1.51,3.37,3.37h.01Z"/>
      <polygon class="cls-3" points="269.46 236.89 255.36 265.48 224.09 265.48 242.4 236.89 269.46 236.89"/>
      <path class="cls-3" d="M311.75,240.26v21.85c0,1.86-1.51,3.37-3.37,3.37h-26.74l17.01-28.6h9.73c1.86,0,3.37,1.51,3.37,3.37h0Z"/>
      <path class="cls-3" d="M199.45,181.77v55.11h13.9l-50.33,95.69c-.87,1.64-.23,3.7,1.41,4.56,1.33.7,2.9.42,3.94-.58l31.09-30.28v14.32h28.74l-14.1,28.6h-57.53c-1.86,0-3.37-1.51-3.37-3.37v-189.27c0-1.86,1.51-3.37,3.37-3.37h100.84l-15.04,28.6h-42.92Z"/>
      <polygon class="cls-1" points="269.46 236.89 252.2 236.89 260.84 232.72 269.46 236.89"/>
      <path class="cls-2" d="M338.43,170.03l-6.98,11.74-32.8,55.11-17.01,28.6-32.78,55.11-17.02,28.6-31.05,52.19-5.68,9.54-23.13,38.89c-.89,1.5-2.81,2.09-4.4,1.31-1.67-.83-2.36-2.86-1.53-4.53l19.35-39.25,4.86-9.84,23.83-48.32,14.1-28.6,27.17-55.11,14.1-28.6-9.23-.55-8.03.55,62.84-55.11,18.26-16.01c1.08-.94,2.67-1.12,3.95-.36,1.59.95,2.12,3.03,1.17,4.62v.02Z"/>
      <path class="cls-2" d="M350.28,68.25c-.08.19-.17.36-.27.53l-20.63,32.22-5.92,9.25-27.49,42.93-18.3,28.6-35.28,55.11-18.3,28.6,8.03.53h7.81l-40.48,40.26-31.09,30.28c-1.03,1-2.61,1.28-3.94.58-1.64-.86-2.28-2.92-1.41-4.56l50.33-95.69,29-55.11,15.04-28.6,29.63-56.32,5.22-9.92,18.62-35.37c.8-1.51,2.65-2.22,4.28-1.55l33.33,13.81c1.72.72,2.55,2.7,1.83,4.42h-.01Z"/>
    </g>
  </g>
</svg>