<?xml version="1.0" encoding="utf-8"?>
<!-- Generator: Adobe Illustrator 28.0.0, SVG Export Plug-In . SVG Version: 6.00 Build 0)  -->
<svg version="1.1" id="Camada_1" xmlns="http://www.w3.org/2000/svg" xmlns:xlink="http://www.w3.org/1999/xlink" x="0px" y="0px"
	 viewBox="0 0 2000 2000" style="enable-background:new 0 0 2000 2000;" xml:space="preserve">
<style type="text/css">
	.st0{fill:#FFFFFF;}
</style>
<g>
	<g>
		<path class="st0" d="M895.5,763.63"/>
		<path class="st0" d="M1797.48,202.68"/>
		<path class="st0" d="M1804.46,130.12c0,0-30.06,264.22-82.32,302.77C1466.81,621.25,1002.1,669.55,794.3,774.73
			c-226.03,114.41-142.32,459.04-296.47,472.99c0,0-129.55-423.69,117.88-565.08C886.38,527.97,1203.11,554.28,1804.46,130.12z"/>
		<path class="st0" d="M285,789.64c97.67-325.56,413-300.44,766.57-737.16c0,0,35.87,293.55-189.87,471.13
			c-69.76,54.88-213.94,70.69-327.42,178.59c-54.2,51.54-155.21,188.08-103.37,422.8c10.12,45.81,40.53,149.58,41.49,233.9
			C472.41,1358.9,229.81,973.61,285,789.64z"/>
		<path class="st0" d="M858.62,1008.2c118.78-138.59,535.32-149.75,757.48-275.32c3.81-2.15-47.73,88.78-61.86,113.56
			c-16.84,29.53-41.11,50.25-74.17,59.15c-18.4,4.95-37.31,8.02-55.99,11.92c-48.81,10.17-97.63,20.32-146.44,30.5
			c-39.35,8.21-78.76,16.18-118.03,24.77c-56.26,12.3-106.76,36.85-151.3,73.34c-59.02,48.35-100.72,149.89-121.92,223.17
			c-51.16,7.74-140.4,28.22-140.4,28.22S763.9,1118.72,858.62,1008.2z"/>
		<path class="st0" d="M1084.51,159.89c0,0,13.02,59.53-36.28,191.62c-21.67,58.06-148.14,184.71-148.14,184.71
			c102.1-41.93,262.56-82.39,311.39-131.23C1266.74,349.73,1084.51,159.89,1084.51,159.89z"/>
		<path class="st0" d="M964.89,1173.08c-21.15,19.05-43.16,91.08-43.16,91.08s350.96-8.2,457.88-174.52
			C1379.61,1089.64,1170.09,1183.6,964.89,1173.08"/>
		<path class="st0" d="M1513.63,917.67c-106.04,51.16-340.7,54.07-444,115.65c-48.37,28.84-92.22,101.06-92.22,101.06
			s193.61,29,456.97-116.13C1495.64,984.49,1513.63,917.67,1513.63,917.67"/>
		<path class="st0" d="M497.83,1424.5c17.42-50.98,8.5-98.8,3.46-148.18c0,0,110.07-14.11,137.27-137.93
			c12.03-54.78,31.09-212.28,130.62-291.81c225.43-180.13,675.3-154.87,952.96-369.74c0,0-57.72,175.78-105.84,209.29
			c-225.77,157.2-587.6,121.85-778.29,293c-65.14,58.47-126.33,238.81-124.64,326.49C713.37,1305.62,547.8,1364.22,497.83,1424.5"/>
	</g>
	<g>
		<g>
			<path class="st0" d="M449.93,1440.84h47.5L533.78,1664h-35.07l-6.38-44.31v0.64h-39.85L446.1,1664h-32.52L449.93,1440.84z
				 M488.19,1590.04l-15.62-110.31h-0.64l-15.3,110.31H488.19z"/>
			<path class="st0" d="M630.36,1440.84h43.99l34.11,133.58h0.64v-133.58h31.24V1664h-36.02l-42.08-162.91h-0.64V1664h-31.24
				V1440.84z"/>
			<path class="st0" d="M843.63,1611.08v-117.32c0-35.71,17.85-56.11,52.28-56.11c34.43,0,52.28,20.4,52.28,56.11v19.13h-33.16
				v-21.36c0-15.94-7.01-22-18.17-22c-11.16,0-18.17,6.06-18.17,22v122.1c0,15.94,7.01,21.68,18.17,21.68
				c11.16,0,18.17-5.74,18.17-21.68v-43.68h-17.53v-31.88h50.69v73.01c0,35.71-17.85,56.11-52.28,56.11
				C861.49,1667.19,843.63,1646.79,843.63,1611.08z"/>
			<path class="st0" d="M1050.53,1440.84h95.64v31.88h-60.57v58.98h48.14v31.88h-48.14v68.54h60.57V1664h-95.64V1440.84z"/>
			<path class="st0" d="M1245.95,1440.84h35.07v191.28h57.7V1664h-92.77V1440.84z"/>
			<path class="st0" d="M1429.25,1611.08v-12.75h33.16v15.3c0,15.94,7.01,21.68,18.17,21.68s18.17-5.74,18.17-22.32
				c0-18.49-7.01-30.29-29.97-50.37c-29.33-25.82-38.89-44-38.89-69.5c0-35.07,18.17-55.47,52.28-55.47
				c34.11,0,51.01,20.4,51.01,56.11v9.25h-33.16v-11.48c0-15.94-6.38-22-17.53-22s-17.53,6.06-17.53,21.36
				c0,16.26,7.33,28.05,30.29,48.14c29.33,25.82,38.58,43.68,38.58,71.41c0,36.34-18.49,56.75-52.92,56.75
				S1429.25,1646.79,1429.25,1611.08z"/>
		</g>
		<g>
			<path class="st0" d="M443.04,1716.49h39.35l30.11,184.86h-29.05l-5.28-36.71v0.53h-33.01l-5.28,36.18h-26.94L443.04,1716.49z
				 M474.73,1840.08l-12.94-91.37h-0.53l-12.68,91.37H474.73z"/>
			<path class="st0" d="M535.46,1857.51v-141.02h29.05v143.13c0,13.2,5.55,17.96,14.79,17.96c9.24,0,14.79-4.75,14.79-17.96v-143.13
				h27.99v141.02c0,29.58-14.79,46.48-43.31,46.48C550.25,1903.98,535.46,1887.08,535.46,1857.51z"/>
			<path class="st0" d="M653.24,1716.49h44.37c29.05,0,43.31,16.11,43.31,45.69v93.49c0,29.58-14.26,45.69-43.31,45.69h-44.37
				V1716.49z M697.08,1874.94c9.24,0,14.79-4.75,14.79-17.96v-96.13c0-13.21-5.55-17.96-14.79-17.96h-14.79v132.04H697.08z"/>
			<path class="st0" d="M771.02,1716.49h29.05v184.86h-29.05V1716.49z"/>
			<path class="st0" d="M830.17,1857.51v-97.18c0-29.58,15.58-46.48,44.1-46.48s44.1,16.9,44.1,46.48v97.18
				c0,29.58-15.58,46.48-44.1,46.48S830.17,1887.08,830.17,1857.51z M889.32,1859.35v-100.88c0-13.2-5.81-18.22-15.05-18.22
				c-9.24,0-15.05,5.02-15.05,18.22v100.88c0,13.2,5.81,18.22,15.05,18.22C883.51,1877.58,889.32,1872.56,889.32,1859.35z"/>
			<path class="st0" d="M940.29,1716.49h29.31l19.01,143.4h0.53l19.01-143.4h26.67l-27.99,184.86h-38.56L940.29,1716.49z"/>
			<path class="st0" d="M1059.39,1716.49h29.05v184.86h-29.05V1716.49z"/>
			<path class="st0" d="M1115.63,1857.51v-10.56h27.46v12.68c0,13.2,5.81,17.96,15.05,17.96s15.05-4.75,15.05-18.49
				c0-15.32-5.81-25.09-24.82-41.72c-24.3-21.39-32.22-36.44-32.22-57.57c0-29.05,15.05-45.95,43.31-45.95s42.25,16.9,42.25,46.48
				v7.66h-27.46v-9.51c0-13.2-5.28-18.22-14.52-18.22s-14.52,5.02-14.52,17.69c0,13.47,6.07,23.24,25.09,39.88
				c24.29,21.39,31.95,36.18,31.95,59.15c0,30.11-15.32,47.01-43.84,47.01C1129.89,1903.98,1115.63,1887.08,1115.63,1857.51z"/>
			<path class="st0" d="M1228.39,1857.51v-141.02h29.05v143.13c0,13.2,5.55,17.96,14.79,17.96c9.24,0,14.79-4.75,14.79-17.96
				v-143.13h27.99v141.02c0,29.58-14.79,46.48-43.31,46.48C1243.18,1903.98,1228.39,1887.08,1228.39,1857.51z"/>
			<path class="st0" d="M1368.09,1716.49h39.35l30.11,184.86h-29.05l-5.28-36.71v0.53h-33.01l-5.28,36.18h-26.94L1368.09,1716.49z
				 M1399.78,1840.08l-12.94-91.37h-0.53l-12.68,91.37H1399.78z"/>
			<path class="st0" d="M1462.1,1716.49h29.05v158.45h47.8v26.41h-76.85V1716.49z"/>
		</g>
	</g>
</g>
</svg>
