<?xml version="1.0" standalone="no"?>
<!DOCTYPE svg PUBLIC "-//W3C//DTD SVG 20010904//EN"
 "http://www.w3.org/TR/2001/REC-SVG-20010904/DTD/svg10.dtd">
<svg version="1.0" xmlns="http://www.w3.org/2000/svg"
 width="700.000000pt" height="700.000000pt" viewBox="0 0 700.000000 700.000000"
 preserveAspectRatio="xMidYMid meet">
<metadata>
Created by potrace 1.14, written by Peter Selinger 2001-2017
</metadata>
<g transform="translate(0.000000,700.000000) scale(0.100000,-0.100000)"
fill="#000000" stroke="none">
<path d="M3645 6773 c-143 -182 -443 -491 -664 -683 -35 -30 -69 -60 -75 -65
-119 -108 -390 -303 -781 -564 -337 -225 -428 -287 -462 -315 -226 -185 -348
-304 -421 -413 -14 -21 -28 -40 -32 -43 -8 -7 -83 -136 -113 -195 -26 -52 -96
-235 -103 -270 -22 -101 -26 -144 -21 -255 14 -305 129 -665 375 -1169 64
-132 224 -427 276 -509 26 -42 39 -54 31 -29 -2 6 -6 46 -9 87 -5 77 -23 213
-31 240 -2 8 -7 30 -10 48 -11 64 -35 174 -64 290 -37 143 -69 323 -76 417
-12 158 -3 361 21 465 3 14 8 38 11 55 23 131 134 378 230 512 44 62 151 176
221 236 46 39 195 138 267 177 33 17 65 36 70 40 6 5 15 9 20 10 6 1 39 15 75
32 36 16 144 61 240 100 281 113 345 149 474 262 192 168 354 405 454 662 43
109 94 296 107 389 2 17 6 46 9 65 15 100 18 137 21 275 3 186 0 199 -40 148z"/>
<path d="M6150 6432 c-241 -166 -601 -393 -810 -509 -30 -17 -73 -41 -95 -54
-210 -118 -511 -267 -760 -376 -93 -40 -179 -78 -190 -83 -162 -72 -592 -223
-1085 -380 -124 -39 -277 -90 -340 -112 -63 -22 -133 -46 -155 -53 -129 -42
-462 -195 -580 -267 -267 -162 -424 -424 -489 -818 -25 -148 -26 -508 -2 -650
3 -14 7 -47 11 -75 9 -72 54 -301 72 -366 l15 -56 46 10 c59 12 108 44 158
100 76 86 123 209 214 557 88 336 151 497 253 652 201 305 441 422 1407 683
1165 314 1596 469 2023 728 176 107 216 142 255 220 31 65 78 195 87 244 2 14
9 39 14 56 12 38 67 312 76 377 3 25 10 70 16 100 11 67 23 180 18 179 -2 0
-74 -48 -159 -107z"/>
<path d="M3799 6355 c-1 -44 -3 -89 -4 -100 -19 -169 -106 -461 -170 -570 -54
-93 -223 -298 -392 -475 -39 -41 -70 -76 -69 -78 2 -1 34 10 72 24 38 15 152
55 254 91 442 154 612 227 710 304 56 44 70 65 75 116 6 66 -30 166 -113 308
-51 89 -205 288 -311 405 l-50 55 -2 -80z"/>
<path d="M5950 5274 c-170 -119 -387 -234 -610 -322 -283 -112 -472 -168
-1085 -322 -502 -126 -598 -152 -770 -207 -397 -127 -697 -284 -862 -450 -176
-178 -288 -440 -368 -856 -33 -172 -70 -271 -134 -357 -68 -91 -192 -178 -303
-211 -59 -18 -66 -23 -62 -42 23 -113 23 -368 1 -439 l-15 -48 45 40 c68 60
174 127 308 195 121 62 318 148 368 160 31 8 33 16 41 124 24 313 235 840 403
1006 121 120 320 245 498 315 33 12 74 29 90 36 128 54 397 127 830 225 609
138 852 215 1125 355 221 114 279 170 383 377 67 135 195 453 185 462 -2 2
-33 -16 -68 -41z"/>
<path d="M5535 4374 c-149 -73 -444 -178 -642 -230 -169 -43 -694 -175 -713
-178 -77 -13 -479 -126 -610 -171 -229 -80 -429 -187 -524 -281 -167 -165
-347 -546 -400 -848 -3 -16 -10 -52 -16 -80 -5 -28 -12 -68 -15 -89 -4 -37 -3
-38 23 -33 15 4 37 8 50 11 13 2 31 6 40 9 9 3 29 7 45 10 15 3 35 7 45 10 9
3 34 7 54 10 21 3 59 11 85 17 27 5 66 13 88 16 41 5 65 18 65 34 0 5 21 67
46 137 112 307 235 506 392 633 147 118 301 191 506 240 167 40 207 49 240 55
15 2 126 25 245 50 119 25 227 47 241 50 59 11 272 56 350 75 166 38 245 101
340 269 131 232 188 340 182 339 -4 0 -56 -25 -117 -55z"/>
<path d="M5288 3785 c-17 -17 -259 -91 -363 -111 -11 -2 -58 -11 -105 -19 -47
-9 -105 -20 -130 -25 -25 -5 -97 -19 -160 -30 -63 -11 -126 -22 -140 -25 -13
-3 -42 -7 -65 -11 -22 -3 -78 -15 -125 -26 -47 -11 -93 -21 -103 -23 -10 -2
-57 -16 -105 -30 -197 -60 -305 -124 -408 -241 -70 -79 -165 -207 -158 -213 9
-9 248 -9 339 0 97 9 130 13 245 34 190 35 419 102 605 178 165 67 392 179
455 225 87 63 171 173 213 280 16 40 17 49 5 37z"/>
<path d="M4760 3158 c-76 -34 -361 -126 -487 -158 -171 -42 -309 -69 -447 -86
-33 -4 -73 -8 -90 -11 -17 -2 -105 -5 -196 -8 -188 -5 -177 0 -230 -105 -27
-54 -80 -193 -80 -210 0 -5 10 -7 23 -5 12 2 63 6 113 10 51 3 101 8 112 10
12 2 45 6 74 9 29 4 65 8 81 11 33 6 136 24 174 31 270 49 565 159 748 278 85
55 231 190 254 234 14 26 9 27 -49 0z"/>
<path d="M3065 1958 c-37 -13 -72 -44 -93 -83 -24 -43 -29 -534 -6 -597 19
-55 47 -84 98 -101 81 -27 172 -6 215 49 33 42 40 89 38 244 l-2 145 -87 1
-88 1 0 -58 c0 -54 1 -58 22 -54 12 3 26 0 32 -5 12 -9 13 -143 2 -185 -11
-44 -86 -52 -108 -12 -13 25 -19 483 -6 517 10 27 51 42 83 30 27 -10 35 -33
38 -101 l2 -44 55 0 55 0 2 40 c6 99 -32 182 -95 207 -39 15 -123 18 -157 6z"/>
<path d="M5103 1950 c-70 -31 -97 -86 -96 -191 0 -70 34 -127 131 -225 91 -92
111 -129 106 -193 -3 -41 -24 -63 -58 -63 -42 -1 -66 28 -66 77 0 48 -6 52
-70 51 l-45 -1 1 -52 c2 -67 9 -94 35 -127 55 -70 181 -81 263 -23 43 30 64
87 62 166 -2 90 -29 141 -122 232 -95 94 -114 124 -114 182 0 53 25 78 68 71
34 -7 51 -31 52 -76 l0 -38 59 0 59 0 -3 44 c-4 67 -23 112 -61 146 -38 33
-35 32 -110 35 -33 2 -66 -4 -91 -15z"/>
<path d="M1575 1946 c-2 -6 -15 -81 -29 -166 -14 -85 -39 -238 -56 -340 -43
-260 -43 -260 -31 -261 95 -11 107 -4 114 71 4 34 9 66 13 71 3 5 34 9 69 9
72 0 70 1 81 -89 3 -34 9 -61 13 -62 31 -5 102 -5 109 0 6 4 4 36 -4 81 -7 41
-15 95 -19 120 -3 25 -8 56 -10 70 -14 78 -18 97 -20 115 -2 11 -11 65 -20
120 -9 55 -18 109 -19 120 -2 11 -7 43 -11 70 -12 87 -7 82 -96 82 -51 0 -82
-4 -84 -11z m89 -197 c4 -31 9 -67 11 -80 3 -12 7 -45 10 -73 3 -28 9 -67 13
-86 14 -71 12 -75 -41 -76 -26 0 -50 3 -53 8 -3 4 2 54 10 110 9 57 18 123 21
148 3 25 7 54 10 65 2 11 4 26 4 34 2 29 9 5 15 -50z"/>
<path d="M2207 1951 c-2 -5 0 -723 2 -762 1 -12 11 -15 44 -14 23 0 47 4 52 7
7 4 10 103 10 272 0 146 2 266 6 266 3 0 12 -26 19 -57 8 -32 15 -62 16 -68 4
-12 22 -82 30 -110 3 -11 7 -29 9 -40 3 -11 20 -76 38 -145 l33 -125 49 -1
c28 0 56 1 63 4 9 3 12 91 12 393 l0 389 -54 -2 -55 -2 2 -232 c1 -128 0 -230
-2 -228 -3 3 -107 398 -121 460 -1 4 -152 -1 -153 -5z"/>
<path d="M3679 1951 c-4 -25 -3 -764 1 -770 3 -3 78 -6 168 -6 l162 -1 0 59 0
58 -105 -3 -106 -3 3 120 3 120 50 1 c28 1 65 2 83 3 l32 1 0 55 0 55 -85 0
-85 0 0 103 0 103 93 -1 c50 -1 98 1 105 3 7 3 12 24 12 57 l0 52 -165 0 c-91
0 -165 -3 -166 -6z"/>
<path d="M4362 1566 l3 -390 160 -1 159 0 1 55 0 55 -50 2 c-27 1 -73 2 -100
2 l-50 1 0 323 c1 177 0 327 -2 333 -2 6 -29 11 -64 11 l-59 0 2 -391z"/>
<path d="M2297 988 c-7 -4 -11 -102 -12 -310 0 -167 1 -310 3 -319 3 -14 54
-17 199 -10 36 2 91 57 99 99 4 20 7 127 7 237 0 219 -4 241 -56 279 -23 17
-48 22 -129 26 -55 3 -105 2 -111 -2z m177 -104 c13 -13 16 -46 16 -210 0
-116 -4 -203 -10 -215 -8 -14 -21 -19 -50 -19 l-40 0 0 230 0 230 34 0 c19 0
42 -7 50 -16z"/>
<path d="M2748 992 l-48 -3 0 -150 c-1 -82 -1 -187 -1 -234 0 -47 0 -125 1
-173 l0 -88 48 1 47 0 3 168 c1 93 1 239 0 325 l-3 157 -47 -3z"/>
<path d="M2980 982 c-22 -10 -42 -32 -55 -57 -17 -36 -19 -61 -19 -261 0 -201
2 -224 20 -255 28 -47 74 -71 135 -71 61 1 106 25 133 72 19 32 20 52 20 260
0 220 0 226 -23 264 -40 64 -136 86 -211 48z m121 -93 c16 -31 16 -424 -1
-444 -16 -19 -64 -19 -80 0 -9 11 -13 72 -12 227 0 192 1 213 18 225 27 20 62
16 75 -8z"/>
<path d="M3721 990 c-13 -8 -13 -19 -12 -346 l1 -301 48 2 47 1 3 321 2 321
-40 4 c-23 2 -45 1 -49 -2z"/>
<path d="M3980 982 c-45 -22 -70 -72 -70 -138 0 -75 22 -118 105 -201 72 -72
94 -111 90 -160 -2 -30 -23 -53 -49 -53 -35 0 -48 15 -53 61 l-5 44 -42 1
c-22 0 -44 -4 -47 -9 -10 -13 1 -88 18 -124 25 -54 123 -82 194 -55 30 12 78
66 80 90 11 128 -7 176 -101 267 -34 33 -68 72 -76 87 -28 54 -12 118 31 118
33 0 55 -26 55 -66 l0 -34 49 0 49 0 -4 46 c-5 60 -22 94 -63 121 -42 28 -111
31 -161 5z"/>
<path d="M5155 990 l-40 -5 1 -310 c0 -171 3 -315 6 -320 5 -8 213 -13 257 -6
4 0 8 20 7 44 l-1 42 -70 2 c-38 1 -76 2 -82 2 -10 1 -13 63 -13 275 0 210 -3
275 -12 278 -7 2 -31 1 -53 -2z"/>
<path d="M1546 963 c-8 -42 -24 -142 -31 -193 -3 -25 -8 -52 -10 -60 -2 -8 -7
-33 -10 -55 -3 -23 -7 -50 -9 -62 -3 -12 -8 -43 -12 -70 -3 -26 -8 -57 -11
-68 -2 -11 -6 -40 -9 -65 l-6 -46 40 1 c49 1 52 3 58 47 11 82 9 79 72 76 l57
-3 10 -60 10 -60 49 -1 48 0 -6 45 c-11 80 -17 115 -26 166 -5 28 -12 68 -15
90 -3 22 -10 65 -15 95 -5 30 -12 71 -15 90 -3 19 -10 63 -16 98 l-11 62 -68
0 c-67 0 -69 -1 -74 -27z m79 -149 c3 -27 8 -60 11 -74 7 -42 24 -154 24 -167
0 -9 -16 -13 -46 -13 -44 0 -45 1 -40 28 5 23 9 54 21 147 12 101 18 135 21
132 2 -2 6 -25 9 -53z"/>
<path d="M1877 983 c-8 -14 -1 -528 7 -553 13 -38 56 -79 90 -85 17 -3 43 -7
58 -9 37 -6 100 28 123 66 19 31 20 54 22 311 l2 277 -49 0 -49 0 -3 -270 c-3
-227 -5 -272 -18 -280 -24 -16 -64 -7 -75 16 -6 12 -10 122 -10 277 l1 257
-48 0 c-26 0 -49 -3 -51 -7z"/>
<path d="M3294 973 c3 -10 7 -38 10 -63 5 -40 40 -274 51 -340 2 -14 9 -59 15
-100 18 -136 11 -126 85 -125 35 1 66 3 68 5 2 3 11 59 21 125 9 66 26 174 36
240 10 66 21 138 24 160 3 22 9 57 12 78 l6 38 -48 -3 c-38 -2 -48 -7 -50 -23
-2 -10 -8 -60 -14 -109 -7 -49 -14 -101 -15 -115 -2 -14 -9 -75 -16 -135 -13
-114 -21 -116 -33 -11 -4 33 -9 71 -11 85 -3 28 -21 158 -31 235 -4 28 -7 56
-7 63 0 8 -18 12 -54 12 -47 0 -54 -2 -49 -17z"/>
<path d="M4302 708 c3 -258 5 -285 22 -311 26 -39 68 -58 127 -59 62 0 108 26
133 75 16 34 18 66 19 305 l1 267 -50 3 -49 3 0 -257 c0 -159 -4 -265 -10
-278 -14 -29 -70 -34 -84 -8 -6 11 -10 118 -10 263 0 134 0 252 -1 262 0 14
-9 17 -51 17 l-50 0 3 -282z"/>
<path d="M4787 983 c-3 -5 -7 -30 -11 -58 -3 -27 -8 -63 -11 -80 -14 -76 -25
-143 -30 -180 -4 -22 -8 -47 -10 -55 -2 -8 -7 -40 -10 -70 -4 -30 -8 -57 -10
-60 -2 -3 -6 -30 -10 -60 -4 -30 -9 -58 -12 -62 -2 -5 2 -8 9 -9 7 0 28 -2 46
-3 39 -3 39 -3 48 60 3 27 8 52 11 57 2 4 29 7 58 7 63 0 61 3 74 -121 1 -8
89 -5 96 3 3 3 -10 102 -30 219 -37 221 -39 230 -51 314 -5 28 -9 53 -10 58
-1 4 -2 16 -3 27 -1 18 -8 20 -70 20 -39 0 -72 -3 -74 -7z m78 -183 c3 -35 8
-67 10 -70 2 -3 6 -32 9 -65 4 -33 9 -70 12 -82 6 -21 3 -23 -40 -23 -51 0
-50 -3 -37 85 5 33 12 83 16 110 8 67 17 117 20 113 2 -2 6 -32 10 -68z"/>
</g>
</svg>
